<svg width="37" height="37" viewBox="0 0 37 37" fill="none" xmlns="http://www.w3.org/2000/svg">
<path d="M15.3689 13.0564C15.4764 12.9489 15.604 12.8636 15.7445 12.8054C15.8849 12.7472 16.0355 12.7173 16.1875 12.7173C16.3395 12.7173 16.4901 12.7472 16.6305 12.8054C16.771 12.8636 16.8986 12.9489 17.0061 13.0564C17.1136 13.1639 17.1989 13.2915 17.2571 13.432C17.3153 13.5724 17.3452 13.723 17.3452 13.875C17.3452 14.027 17.3153 14.1776 17.2571 14.318C17.1989 14.4585 17.1136 14.5861 17.0061 14.6936L13.1974 18.5L17.0061 22.3064C17.2232 22.5235 17.3452 22.818 17.3452 23.125C17.3452 23.432 17.2232 23.7265 17.0061 23.9436C16.789 24.1607 16.4945 24.2827 16.1875 24.2827C15.8805 24.2827 15.586 24.1607 15.3689 23.9436L10.7439 19.3186C10.6362 19.2112 10.5508 19.0836 10.4925 18.9431C10.4342 18.8027 10.4042 18.6521 10.4042 18.5C10.4042 18.3479 10.4342 18.1973 10.4925 18.0568C10.5508 17.9164 10.6362 17.7888 10.7439 17.6814L15.3689 13.0564ZM21.6311 13.0564C21.5236 12.9489 21.396 12.8636 21.2555 12.8054C21.1151 12.7472 20.9645 12.7173 20.8125 12.7173C20.6605 12.7173 20.5099 12.7472 20.3695 12.8054C20.229 12.8636 20.1014 12.9489 19.9939 13.0564C19.8864 13.1639 19.8011 13.2915 19.7429 13.432C19.6847 13.5724 19.6548 13.723 19.6548 13.875C19.6548 14.027 19.6847 14.1776 19.7429 14.318C19.8011 14.4585 19.8864 14.5861 19.9939 14.6936L23.8026 18.5L19.9939 22.3064C19.7768 22.5235 19.6548 22.818 19.6548 23.125C19.6548 23.432 19.7768 23.7265 19.9939 23.9436C20.211 24.1607 20.5055 24.2827 20.8125 24.2827C21.1195 24.2827 21.414 24.1607 21.6311 23.9436L26.2561 19.3186C26.3638 19.2112 26.4492 19.0836 26.5075 18.9431C26.5658 18.8027 26.5958 18.6521 26.5958 18.5C26.5958 18.3479 26.5658 18.1973 26.5075 18.0568C26.4492 17.9164 26.3638 17.7888 26.2561 17.6814L21.6311 13.0564Z" fill="#794AFF"/>
<path d="M4.625 4.625C4.625 3.39837 5.11228 2.22199 5.97963 1.35463C6.84699 0.487275 8.02337 0 9.25 0L27.75 0C28.9766 0 30.153 0.487275 31.0204 1.35463C31.8877 2.22199 32.375 3.39837 32.375 4.625V32.375C32.375 33.6016 31.8877 34.778 31.0204 35.6454C30.153 36.5127 28.9766 37 27.75 37H9.25C8.02337 37 6.84699 36.5127 5.97963 35.6454C5.11228 34.778 4.625 33.6016 4.625 32.375V4.625ZM27.75 2.3125H9.25C8.63669 2.3125 8.04849 2.55614 7.61482 2.98982C7.18114 3.42349 6.9375 4.01169 6.9375 4.625V32.375C6.9375 32.9883 7.18114 33.5765 7.61482 34.0102C8.04849 34.4439 8.63669 34.6875 9.25 34.6875H27.75C28.3633 34.6875 28.9515 34.4439 29.3852 34.0102C29.8189 33.5765 30.0625 32.9883 30.0625 32.375V4.625C30.0625 4.01169 29.8189 3.42349 29.3852 2.98982C28.9515 2.55614 28.3633 2.3125 27.75 2.3125Z" fill="#794AFF"/>
</svg>
