<svg width="37" height="37" viewBox="0 0 37 37" fill="none" xmlns="http://www.w3.org/2000/svg">
<g clip-path="url(#clip0_47_6)">
<path d="M28.0876 0.337678C28.195 0.23 28.3226 0.14457 28.4631 0.08628C28.6036 0.0279901 28.7542 -0.00201416 28.9062 -0.00201416C29.0583 -0.00201416 29.2089 0.0279901 29.3494 0.08628C29.4899 0.14457 29.6175 0.23 29.7249 0.337678L36.6624 7.27518C36.77 7.38258 36.8555 7.51018 36.9138 7.65065C36.972 7.79112 37.0021 7.94172 37.0021 8.0938C37.0021 8.24589 36.972 8.39648 36.9138 8.53696C36.8555 8.67743 36.77 8.80502 36.6624 8.91243L13.5374 32.0374C13.4264 32.1476 13.2942 32.2342 13.1489 32.2918L1.58636 36.9168C1.37624 37.0009 1.14605 37.0215 0.924334 36.976C0.70262 36.9305 0.499129 36.821 0.339089 36.6609C0.179049 36.5009 0.0694981 36.2974 0.0240171 36.0757C-0.0214639 35.854 -0.000874563 35.6238 0.0832326 35.4137L4.70823 23.8512C4.76588 23.7058 4.85242 23.5736 4.96261 23.4627L28.0876 0.337678ZM25.9162 5.7813L31.2187 11.0839L34.2088 8.0938L28.9062 2.79124L25.9162 5.7813ZM29.5838 12.7188L24.2812 7.41624L9.24998 22.4475V23.1251H10.4062C10.7129 23.1251 11.007 23.2469 11.2238 23.4637C11.4407 23.6805 11.5625 23.9746 11.5625 24.2813V25.4376H12.7187C13.0254 25.4376 13.3195 25.5594 13.5363 25.7762C13.7532 25.993 13.875 26.2871 13.875 26.5938V27.7501H14.5525L29.5838 12.7188ZM7.01148 24.686L6.76636 24.9311L3.23286 33.7672L12.0689 30.2337L12.314 29.9886C12.0935 29.9061 11.9033 29.7584 11.769 29.565C11.6347 29.3716 11.5627 29.1418 11.5625 28.9063V27.7501H10.4062C10.0996 27.7501 9.80548 27.6282 9.58864 27.4114C9.3718 27.1946 9.24998 26.9005 9.24998 26.5938V25.4376H8.09373C7.85827 25.4374 7.62848 25.3653 7.43508 25.231C7.24168 25.0967 7.09389 24.9066 7.01148 24.686Z" fill="#794AFF"/>
</g>
<defs>
<clipPath id="clip0_47_6">
<rect width="37" height="37" fill="white"/>
</clipPath>
</defs>
</svg>
