<svg width="37" height="37" viewBox="0 0 37 37" fill="none" xmlns="http://www.w3.org/2000/svg">
<path d="M13.875 18.5C15.7149 18.5 17.4795 17.7691 18.7806 16.4681C20.0816 15.167 20.8125 13.4024 20.8125 11.5625C20.8125 9.72256 20.0816 7.95798 18.7806 6.65695C17.4795 5.35591 15.7149 4.625 13.875 4.625C12.0351 4.625 10.2705 5.35591 8.96945 6.65695C7.66841 7.95798 6.9375 9.72256 6.9375 11.5625C6.9375 13.4024 7.66841 15.167 8.96945 16.4681C10.2705 17.7691 12.0351 18.5 13.875 18.5ZM2.3125 32.375C2.3125 32.375 0 32.375 0 30.0625C0 27.75 2.3125 20.8125 13.875 20.8125C25.4375 20.8125 27.75 27.75 27.75 30.0625C27.75 32.375 25.4375 32.375 25.4375 32.375H2.3125ZM25.4375 8.09375C25.4375 7.78709 25.5593 7.493 25.7762 7.27616C25.993 7.05932 26.2871 6.9375 26.5938 6.9375H35.8438C36.1504 6.9375 36.4445 7.05932 36.6613 7.27616C36.8782 7.493 37 7.78709 37 8.09375C37 8.40041 36.8782 8.6945 36.6613 8.91134C36.4445 9.12818 36.1504 9.25 35.8438 9.25H26.5938C26.2871 9.25 25.993 9.12818 25.7762 8.91134C25.5593 8.6945 25.4375 8.40041 25.4375 8.09375ZM26.5938 13.875C26.2871 13.875 25.993 13.9968 25.7762 14.2137C25.5593 14.4305 25.4375 14.7246 25.4375 15.0312C25.4375 15.3379 25.5593 15.632 25.7762 15.8488C25.993 16.0657 26.2871 16.1875 26.5938 16.1875H35.8438C36.1504 16.1875 36.4445 16.0657 36.6613 15.8488C36.8782 15.632 37 15.3379 37 15.0312C37 14.7246 36.8782 14.4305 36.6613 14.2137C36.4445 13.9968 36.1504 13.875 35.8438 13.875H26.5938ZM31.2188 20.8125C30.9121 20.8125 30.618 20.9343 30.4012 21.1512C30.1843 21.368 30.0625 21.6621 30.0625 21.9688C30.0625 22.2754 30.1843 22.5695 30.4012 22.7863C30.618 23.0032 30.9121 23.125 31.2188 23.125H35.8438C36.1504 23.125 36.4445 23.0032 36.6613 22.7863C36.8782 22.5695 37 22.2754 37 21.9688C37 21.6621 36.8782 21.368 36.6613 21.1512C36.4445 20.9343 36.1504 20.8125 35.8438 20.8125H31.2188ZM31.2188 27.75C30.9121 27.75 30.618 27.8718 30.4012 28.0887C30.1843 28.3055 30.0625 28.5996 30.0625 28.9062C30.0625 29.2129 30.1843 29.507 30.4012 29.7238C30.618 29.9407 30.9121 30.0625 31.2188 30.0625H35.8438C36.1504 30.0625 36.4445 29.9407 36.6613 29.7238C36.8782 29.507 37 29.2129 37 28.9062C37 28.5996 36.8782 28.3055 36.6613 28.0887C36.4445 27.8718 36.1504 27.75 35.8438 27.75H31.2188Z" fill="#794AFF"/>
</svg>
